<svg width="159" height="60" viewBox="0 0 159 60" fill="none" xmlns="http://www.w3.org/2000/svg">
<g clip-path="url(#clip0_23_5901)">
<path d="M55.7247 26.9004V29.1743C55.1629 28.3985 54.7215 27.7832 54.3737 27.3284L45.8799 15.8384H43.5258V33.5884H46.1341V20.2525L47.4851 22.0984L55.9788 33.5884H58.333V15.8384H55.7247V26.9004Z" fill="#00A443"/>
<path d="M76.0162 15.8384H73.0467L67.8166 22.6468L62.5866 15.8384H59.5235L66.4924 25.1749V33.5884H69.1275V25.1615L76.0162 15.8384Z" fill="#00A443"/>
<path d="M86.9444 24.8538C86.1552 24.3722 85.1654 23.9709 83.9615 23.6499L81.7812 23.0614C80.7647 22.7805 79.9889 22.4461 79.4538 22.0715C78.9188 21.697 78.6379 21.1218 78.6379 20.3594C78.6379 19.597 78.9723 19.0486 79.6411 18.6071C80.3099 18.1657 81.2061 17.9517 82.3163 17.9517C83.4265 17.9517 84.2959 18.1925 85.0718 18.674C85.8476 19.1556 86.3692 19.9046 86.6769 20.9078L88.9775 20.0518C88.7394 19.1439 88.2836 18.3077 87.6497 17.6155C87.0157 16.9233 86.2228 16.396 85.3393 16.0791C84.3613 15.7285 83.3283 15.5564 82.2895 15.5708C81.0188 15.5708 79.9086 15.7714 78.9589 16.1995C78.0092 16.6275 77.2601 17.2027 76.7251 17.9651C76.192 18.7238 75.9155 19.633 75.9359 20.56C75.9181 21.3181 76.093 22.0683 76.4442 22.7403C76.8258 23.4155 77.3738 23.9819 78.036 24.3856C78.8358 24.8832 79.7061 25.2575 80.6175 25.4958L82.7978 26.0843C83.5549 26.2716 84.2936 26.5268 85.0049 26.8468C85.4822 27.0529 85.9039 27.3692 86.2355 27.7697C86.492 28.1183 86.6282 28.5408 86.6234 28.9736C86.6234 29.736 86.2488 30.3379 85.5132 30.7927C84.7775 31.2475 83.7743 31.4883 82.5169 31.4883C81.2596 31.4883 80.2029 31.1672 79.3602 30.5252C78.5415 29.9114 77.93 29.062 77.6079 28.0908L75.3206 29.0538C75.6245 30.003 76.1311 30.8747 76.8054 31.6087C77.4889 32.3448 78.3304 32.9164 79.2665 33.2807C80.302 33.6844 81.4057 33.8842 82.5169 33.8692C83.908 33.8692 85.0985 33.6552 86.1151 33.2138C87.1317 32.7724 87.9075 32.1972 88.4559 31.4348C89.0043 30.6723 89.2852 29.7761 89.2852 28.7462C89.3021 27.9714 89.103 27.2071 88.71 26.5391C88.2627 25.8459 87.6576 25.2684 86.9444 24.8538Z" fill="#00A443"/>
<path d="M92.375 15.8384H91.2916V33.5884H92.375H93.8999H103.397V31.2342H93.8999V25.75H102.367V23.4226H93.8999V18.2059H103.397V15.8384H93.8999H92.375Z" fill="#00A443"/>
<path d="M121.16 24.1047H112.814V26.3653H118.458C118.371 27.1652 118.145 27.9438 117.79 28.6659C117.355 29.5182 116.681 30.2248 115.85 30.6991C115.007 31.1673 114.004 31.408 112.814 31.408C111.75 31.4217 110.703 31.1386 109.791 30.5904C108.879 30.0423 108.138 29.2508 107.65 28.3048C107.102 27.3016 106.835 26.0977 106.835 24.72C106.824 23.7601 106.977 22.8055 107.289 21.8977C107.568 21.1168 108.006 20.4019 108.573 19.7976C109.113 19.2261 109.77 18.7789 110.5 18.4868C111.259 18.1728 112.073 18.0137 112.894 18.0186C114.02 18.0008 115.129 18.3022 116.091 18.8881C117.014 19.4632 117.763 20.3327 118.338 21.5231L120.518 20.1989C120.054 19.2041 119.389 18.316 118.565 17.5906C117.78 16.933 116.883 16.4211 115.917 16.0791C114.946 15.7352 113.923 15.5632 112.894 15.5708C111.7 15.5603 110.515 15.7782 109.403 16.2129C108.347 16.623 107.389 17.2521 106.594 18.0587C105.793 18.8871 105.169 19.8702 104.761 20.948C104.308 22.153 104.085 23.4326 104.106 24.72C104.086 26.0029 104.309 27.278 104.761 28.4787C105.17 29.5582 105.804 30.5385 106.621 31.3545C107.42 32.1409 108.365 32.7634 109.403 33.187C110.485 33.631 111.644 33.8538 112.814 33.8425C114.446 33.8425 115.877 33.4947 117.134 32.7858C118.389 32.0903 119.419 31.0508 120.104 29.7895C120.826 28.4787 121.187 26.9137 121.187 25.0678V24.5996C121.187 24.4391 121.174 24.2786 121.16 24.1047Z" fill="#00A443"/>
<path d="M19.6361 27.2749C19.6329 28.2877 19.8298 29.2912 20.2154 30.2277C20.6011 31.1642 21.1679 32.0154 21.8833 32.7323C24.6522 35.5011 28.4108 35.5011 30.8185 34.1903C33.7479 32.5985 40.3556 27.8233 33.4937 8C33.4937 17.3632 19.6361 18.3129 19.6361 27.2749Z" fill="#FF9C1A"/>
<path d="M25.9497 16.1995C25.4949 13.7383 24.7726 11.237 23.6758 8C23.6758 17.3632 9.81821 18.3129 9.81821 27.2749C9.81257 29.3177 10.6156 31.2797 12.052 32.7323C14.8342 35.5011 18.6196 35.5011 20.9872 34.1903C15.4763 28.3182 17.4158 21.5232 25.9497 16.1995Z" fill="#0DA9FF"/>
<path d="M16.1316 16.1995C15.6768 13.7383 14.9412 11.237 13.8577 8C13.8577 17.3632 0.00012207 18.3129 0.00012207 27.2749C0.00012207 31.8762 3.71866 33.9094 3.71866 33.9094C3.14558 36.3685 3.02771 38.9118 3.37088 41.4133L5.1499 41.1191C4.28045 38.0961 4.8155 34.8056 4.869 34.4712C7.14293 35.3941 9.48373 35.1132 11.1691 34.1903C5.65818 28.3182 7.59771 21.5232 16.1316 16.1995Z" fill="#00A443"/>
<path d="M45.4519 41.8013L42.5092 49.1581H43.499L44.3417 46.9644H47.445L48.2877 49.1581H49.2909L46.3615 41.8013H45.4519ZM44.6628 46.1351L45.5857 43.7542C45.666 43.5535 45.773 43.2994 45.8934 42.965C46.0137 43.2994 46.1207 43.5535 46.201 43.7542L47.1239 46.1351H44.6628Z" fill="#00A443"/>
<path d="M53.4508 44.0083C53.1343 43.8384 52.7801 43.751 52.4209 43.7541C52.0586 43.7537 51.7028 43.8507 51.3909 44.035C51.1398 44.1912 50.9362 44.4133 50.8024 44.6771V43.8477H49.9062V49.158H50.8024V46.0013C50.7924 45.807 50.8229 45.6127 50.892 45.4308C50.9611 45.2489 51.0672 45.0833 51.2037 44.9446C51.3423 44.8175 51.5047 44.7191 51.6814 44.6548C51.8581 44.5906 52.0458 44.5618 52.2336 44.57C52.4053 44.563 52.5765 44.5928 52.7356 44.6574C52.8948 44.722 53.0384 44.8199 53.1566 44.9446C53.3997 45.2309 53.5241 45.5994 53.5043 45.9745V49.158H54.4139V45.8408C54.4187 45.4558 54.3316 45.0752 54.1598 44.7306C53.9954 44.4284 53.7498 44.1783 53.4508 44.0083Z" fill="#00A443"/>
<path d="M60.3662 41.8013L57.4368 49.1581H58.4133L59.256 46.9644H62.3592L63.2019 49.1581H64.2185L61.2758 41.8013H60.3662ZM59.577 46.1351L60.5133 43.7542C60.5802 43.5535 60.6872 43.2994 60.8076 42.965L61.1152 43.7542L62.0382 46.1351H59.577Z" fill="#00A443"/>
<path d="M66.693 47.2319C66.6529 47.3255 66.6261 47.4326 66.5726 47.5396L66.4255 47.9141C66.372 47.7803 66.3319 47.6466 66.2784 47.5396L66.158 47.2319L64.8337 43.8478H63.8573L65.9975 49.1581H66.8268L68.9669 43.8478H68.0039L66.693 47.2319Z" fill="#00A443"/>
<path d="M73.0333 44.2357C72.8111 44.0732 72.5621 43.951 72.2976 43.8746C72.0148 43.7943 71.7221 43.7538 71.4282 43.7542C70.9733 43.7456 70.5247 43.8612 70.1307 44.0886C69.7518 44.3048 69.459 44.6449 69.3014 45.0516L70.0237 45.4396C70.1269 45.1767 70.3092 44.9524 70.5453 44.7975C70.8084 44.6425 71.1095 44.5638 71.4148 44.5701C71.6621 44.5655 71.9078 44.611 72.1371 44.7039C72.3521 44.7874 72.5348 44.9373 72.6587 45.1319C72.8032 45.3738 72.873 45.653 72.8594 45.9345V46.5899C72.821 46.5275 72.7711 46.473 72.7122 46.4294C72.3778 46.1351 71.8829 45.988 71.2543 45.988C70.8923 45.9848 70.5332 46.053 70.1976 46.1886C69.8895 46.2962 69.6166 46.4858 69.4084 46.737C69.2128 46.9893 69.109 47.3007 69.1141 47.6198C69.1025 47.9441 69.2068 48.2618 69.4084 48.516C69.6085 48.77 69.878 48.9605 70.1842 49.0645C70.5151 49.2001 70.8698 49.2683 71.2275 49.2651C71.8696 49.2651 72.3511 49.118 72.6989 48.8237L72.8861 48.623V49.1581H73.769V45.8408C73.7797 45.5127 73.7109 45.1869 73.5683 44.8911C73.4435 44.6339 73.2603 44.4095 73.0333 44.2357ZM72.4849 48.3154C72.1751 48.4748 71.8299 48.5531 71.4817 48.5428C71.125 48.5513 70.7716 48.4733 70.4517 48.3154C70.3252 48.2489 70.2196 48.1487 70.1464 48.026C70.0733 47.9033 70.0354 47.7627 70.037 47.6198C70.0339 47.4767 70.0711 47.3355 70.1444 47.2125C70.2177 47.0895 70.3242 46.9896 70.4517 46.9243C70.7716 46.7664 71.125 46.6883 71.4817 46.6969C71.8317 46.6844 72.1786 46.7677 72.4849 46.9377C72.6098 47.0013 72.714 47.0993 72.785 47.2202C72.8561 47.3411 72.8912 47.4797 72.8861 47.6198C72.8906 47.7616 72.8554 47.9019 72.7845 48.0247C72.7136 48.1476 72.6098 48.2483 72.4849 48.3154Z" fill="#00A443"/>
<path d="M78.4239 44.0083C78.1073 43.8384 77.7531 43.751 77.3939 43.7541C77.0359 43.7541 76.6846 43.8512 76.3773 44.035C76.1229 44.1872 75.9184 44.4104 75.7888 44.6771V43.8477H74.8792V49.158H75.7888V46.0013C75.7728 45.8104 75.7984 45.6184 75.8638 45.4384C75.9292 45.2584 76.0328 45.0947 76.1676 44.9587C76.3024 44.8226 76.4651 44.7174 76.6445 44.6503C76.8239 44.5832 77.0156 44.5558 77.2066 44.57C77.3784 44.5621 77.5498 44.5915 77.7092 44.6561C77.8685 44.7208 78.0119 44.8192 78.1296 44.9446C78.3704 45.1987 78.4774 45.5331 78.4774 45.9745V49.158H79.3869V45.8408C79.3978 45.4551 79.3103 45.0731 79.1328 44.7306C78.9684 44.4284 78.7229 44.1783 78.4239 44.0083Z" fill="#00A443"/>
<path d="M84.3896 44.8242C84.3365 44.7276 84.2784 44.6339 84.2157 44.5433C84.0475 44.3009 83.8224 44.1034 83.5602 43.9681C83.2604 43.8223 82.9305 43.749 82.5972 43.7541C82.2714 43.7541 81.9488 43.8177 81.6475 43.9414C81.3645 44.0618 81.1095 44.2394 80.8984 44.463C80.6747 44.692 80.5015 44.9654 80.3901 45.2656C80.2697 45.5861 80.2107 45.9264 80.2162 46.2688C80.2052 46.7206 80.3112 47.1675 80.5239 47.5663C80.7236 47.9406 81.023 48.2524 81.3889 48.4672C81.7548 48.6821 82.173 48.7915 82.5972 48.7835C82.9295 48.7928 83.2593 48.7241 83.5602 48.5828C83.9071 48.3753 84.1931 48.08 84.3896 47.7268V48.5293C84.3969 48.8517 84.3184 49.1702 84.1622 49.4523C84.0144 49.699 83.7952 49.8949 83.5335 50.0141C83.2597 50.1345 82.9631 50.1938 82.6641 50.188C82.3299 50.1941 82.0008 50.1061 81.7143 49.9338C81.4351 49.7548 81.1978 49.5176 81.0188 49.2383L80.3767 49.7466C80.5332 50.0094 80.7374 50.2407 80.9787 50.4287C81.2124 50.6199 81.4802 50.7651 81.7679 50.8568C82.5084 51.0948 83.3118 51.0422 84.015 50.7096C84.4089 50.5291 84.7364 50.2298 84.9514 49.8536C85.1885 49.4343 85.3043 48.9572 85.2858 48.4758V43.8477H84.3896V44.8242ZM84.1889 47.1516C84.0556 47.4009 83.8567 47.609 83.6137 47.7535C83.4255 47.8657 83.2168 47.9392 82.9998 47.9697C82.7829 48.0001 82.562 47.9869 82.3502 47.9309C82.1384 47.8748 81.9399 47.777 81.7664 47.6432C81.5929 47.5094 81.4479 47.3422 81.3398 47.1516C81.199 46.8786 81.1256 46.5759 81.1256 46.2688C81.1256 45.9616 81.199 45.659 81.3398 45.386C81.5679 45.0116 81.932 44.74 82.3558 44.6278C82.7795 44.5156 83.2303 44.5716 83.6137 44.7841C83.8567 44.9286 84.0556 45.1367 84.1889 45.386C84.3297 45.659 84.4031 45.9616 84.4031 46.2688C84.4031 46.5759 84.3297 46.8786 84.1889 47.1516Z" fill="#00A443"/>
<path d="M87.961 44.0083C87.6881 44.1993 87.4747 44.4637 87.3457 44.7708V43.8478H86.4361V49.1581H87.3457V46.309C87.3253 45.8907 87.4532 45.4786 87.7068 45.1453C87.8182 45.0087 87.9592 44.8992 88.119 44.8251C88.2789 44.7509 88.4536 44.7141 88.6298 44.7173H89.1381V43.7542H88.8304C88.522 43.7521 88.2197 43.8405 87.961 44.0083Z" fill="#00A443"/>
<path d="M90.2483 41.5873C90.1659 41.5836 90.0836 41.5969 90.0065 41.6263C89.9295 41.6558 89.8593 41.7007 89.8004 41.7584C89.7414 41.8161 89.6949 41.8853 89.6639 41.9617C89.6328 42.0381 89.6177 42.1201 89.6196 42.2026C89.6156 42.3711 89.6781 42.5345 89.7935 42.6574C89.8539 42.7151 89.9253 42.7603 90.0034 42.7901C90.0815 42.82 90.1647 42.834 90.2483 42.8312C90.332 42.8355 90.4157 42.8223 90.4941 42.7923C90.5724 42.7624 90.6436 42.7164 90.7031 42.6574C90.7675 42.6014 90.818 42.5311 90.8506 42.4521C90.8831 42.3732 90.8967 42.2877 90.8903 42.2026C90.8956 42.1195 90.8814 42.0363 90.8489 41.9597C90.8164 41.8831 90.7665 41.8151 90.7031 41.7612C90.6436 41.7021 90.5724 41.6561 90.4941 41.6262C90.4157 41.5962 90.332 41.583 90.2483 41.5873Z" fill="#00A443"/>
<path d="M90.6897 43.8478H89.7935V49.1487H90.6897V43.8478Z" fill="#00A443"/>
<path d="M95.8796 44.8644C95.8354 44.7812 95.7863 44.7008 95.7324 44.6236C95.5547 44.361 95.316 44.1453 95.0369 43.9949C94.7294 43.828 94.3834 43.745 94.0337 43.7542C93.7022 43.7537 93.3743 43.822 93.0706 43.9548C92.7702 44.0762 92.5039 44.2691 92.2948 44.5166C92.0628 44.7673 91.8851 45.0633 91.7731 45.3861C91.6408 45.7409 91.5772 46.1177 91.5859 46.4963C91.5748 46.9966 91.6849 47.4923 91.9069 47.9409C92.1132 48.3326 92.4173 48.6644 92.7897 48.9039C93.1638 49.1336 93.5947 49.254 94.0337 49.2517C94.3834 49.2609 94.7294 49.1779 95.0369 49.011C95.316 48.8605 95.5547 48.6449 95.7324 48.3823C95.7863 48.3051 95.8354 48.2247 95.8796 48.1415V49.1581H96.7891V41.8013H95.8796V44.8644ZM95.4382 47.9141C95.2853 48.0813 95.0983 48.2136 94.8897 48.302C94.6731 48.39 94.4414 48.4355 94.2076 48.4358C93.9767 48.4451 93.7465 48.4031 93.5338 48.3129C93.321 48.2227 93.1308 48.0865 92.977 47.9141C92.6559 47.5797 92.4954 47.1116 92.4954 46.4963C92.4921 46.224 92.5327 45.953 92.6158 45.6937C92.6957 45.4714 92.8184 45.2669 92.977 45.0918C93.1212 44.921 93.3048 44.7879 93.512 44.7039C93.7346 44.6218 93.9703 44.581 94.2076 44.5835C94.4352 44.5745 94.6621 44.6153 94.8723 44.7031C95.0826 44.7909 95.2711 44.9236 95.4248 45.0918C95.7458 45.4306 95.9063 45.8988 95.9063 46.4963C95.9107 46.773 95.87 47.0485 95.7859 47.3122C95.7138 47.5352 95.5953 47.7403 95.4382 47.9141Z" fill="#00A443"/>
<path d="M101.578 45.065C101.726 44.9023 101.909 44.7744 102.113 44.6905C102.317 44.6095 102.535 44.5686 102.755 44.5701C103.093 44.5621 103.427 44.6502 103.718 44.8242C104.032 45.037 104.267 45.3473 104.387 45.707L105.149 45.3325C105.026 44.977 104.819 44.656 104.547 44.3962C104.302 44.1766 104.016 44.0083 103.704 43.9013C103.397 43.8058 103.077 43.7563 102.755 43.7541C102.406 43.7493 102.059 43.8177 101.738 43.9548C101.42 44.0845 101.132 44.2805 100.896 44.53C100.66 44.7778 100.474 45.0684 100.347 45.386C100.221 45.7425 100.158 46.1181 100.16 46.4962C100.148 46.9939 100.263 47.4864 100.494 47.9275C100.708 48.3349 101.032 48.6734 101.431 48.9039C101.832 49.1375 102.29 49.2577 102.755 49.2517C103.077 49.2496 103.397 49.2 103.704 49.1046C104.019 48.9979 104.306 48.8245 104.547 48.5963C104.814 48.3369 105.019 48.0217 105.149 47.6733L104.387 47.2988C104.263 47.6527 104.028 47.9575 103.718 48.1682C103.429 48.3469 103.095 48.4397 102.755 48.4358C102.463 48.4382 102.176 48.3595 101.925 48.2084C101.663 48.0524 101.449 47.8251 101.31 47.5529C101.15 47.2244 101.071 46.8617 101.083 46.4962C101.076 46.2183 101.121 45.9415 101.217 45.6803C101.285 45.4487 101.409 45.2374 101.578 45.065Z" fill="#00A443"/>
<path d="M109.724 44.1019C109.356 43.9016 108.948 43.7847 108.53 43.7592C108.111 43.7338 107.692 43.8006 107.303 43.9548C106.977 44.071 106.683 44.2636 106.447 44.5166C106.202 44.7653 106.011 45.0611 105.885 45.386C105.749 45.7403 105.681 46.1169 105.684 46.4962C105.675 46.9995 105.795 47.4968 106.032 47.9408C106.254 48.3463 106.583 48.6838 106.982 48.9173C107.352 49.1178 107.762 49.2349 108.183 49.2603C108.603 49.2857 109.024 49.2189 109.416 49.0644C109.738 48.9412 110.027 48.7442 110.259 48.4893C110.503 48.2406 110.694 47.9448 110.821 47.6198C110.959 47.2616 111.027 46.8802 111.021 46.4962C111.03 45.9972 110.911 45.5042 110.674 45.065C110.454 44.6607 110.125 44.3268 109.724 44.1019ZM109.978 47.3122C109.893 47.5393 109.766 47.7481 109.603 47.9275C109.449 48.0934 109.263 48.2255 109.055 48.3154C108.832 48.3963 108.597 48.437 108.359 48.4358C108.045 48.445 107.735 48.3662 107.463 48.2084C107.19 48.0553 106.97 47.8218 106.835 47.5396C106.677 47.2148 106.599 46.8571 106.607 46.4962C106.607 46.2231 106.652 45.9519 106.741 45.6937C106.825 45.4666 106.953 45.2577 107.115 45.0784C107.266 44.9123 107.454 44.784 107.664 44.7038C107.887 44.6218 108.122 44.581 108.359 44.5835C108.674 44.5742 108.984 44.653 109.256 44.8108C109.519 44.9668 109.732 45.1941 109.871 45.4663C110.038 45.7834 110.121 46.138 110.112 46.4962C110.112 46.7737 110.067 47.0493 109.978 47.3122Z" fill="#00A443"/>
<path d="M118.432 44.0082C118.139 43.84 117.806 43.7523 117.468 43.7541C117.099 43.7586 116.738 43.8651 116.425 44.0618C116.171 44.2304 115.975 44.4732 115.863 44.7573C115.748 44.4981 115.568 44.2726 115.342 44.1019C115.028 43.8705 114.648 43.7483 114.258 43.7541C113.928 43.7559 113.604 43.8484 113.322 44.0216C113.099 44.1735 112.919 44.3809 112.8 44.6235V43.8477H111.904V49.158H112.8V45.9344C112.792 45.6797 112.847 45.4269 112.961 45.1987C113.068 45.0094 113.219 44.8488 113.402 44.7306C113.602 44.6196 113.829 44.5642 114.058 44.57C114.209 44.5646 114.359 44.593 114.498 44.6532C114.637 44.7134 114.761 44.8038 114.86 44.9178C115.078 45.2053 115.187 45.5608 115.168 45.921V49.158H116.064V45.9344C116.064 45.493 116.184 45.1586 116.425 44.9178C116.544 44.8027 116.684 44.7126 116.838 44.6528C116.992 44.5931 117.156 44.5649 117.321 44.57C117.471 44.5637 117.62 44.5918 117.756 44.6521C117.893 44.7124 118.014 44.8033 118.111 44.9178C118.325 45.1586 118.432 45.493 118.432 45.921V49.158H119.328V45.7605C119.335 45.3939 119.253 45.0309 119.087 44.7038C118.934 44.4177 118.708 44.1775 118.432 44.0082Z" fill="#00A443"/>
<path d="M124.464 44.1019C124.086 43.8706 123.65 43.7501 123.207 43.7542C122.857 43.745 122.511 43.828 122.204 43.9949C121.92 44.1449 121.677 44.3605 121.495 44.6236L121.348 44.8644V43.8478H120.451V50.8836H121.348V48.1415L121.508 48.3823C121.689 48.6419 121.927 48.8569 122.204 49.0109C122.511 49.1779 122.857 49.2609 123.207 49.2517C123.539 49.2551 123.867 49.1866 124.17 49.0511C124.47 48.9166 124.739 48.7207 124.959 48.4759C125.182 48.2211 125.355 47.926 125.467 47.6065C125.6 47.2516 125.663 46.8749 125.655 46.4963C125.664 46.0003 125.554 45.5094 125.334 45.065C125.133 44.6738 124.833 44.3419 124.464 44.1019ZM124.625 47.3122C124.549 47.5378 124.431 47.7467 124.277 47.9275C124.121 48.0877 123.934 48.2151 123.728 48.302C123.511 48.3873 123.28 48.4326 123.046 48.4358C122.815 48.4451 122.585 48.4031 122.373 48.3129C122.16 48.2227 121.97 48.0865 121.816 47.9141C121.495 47.5842 121.334 47.116 121.334 46.5096C121.33 46.2329 121.371 45.9574 121.455 45.6937C121.538 45.4729 121.66 45.269 121.816 45.0918C121.964 44.9249 122.146 44.7925 122.351 44.7039C122.573 44.6218 122.809 44.581 123.046 44.5835C123.274 44.5745 123.501 44.6153 123.711 44.7031C123.921 44.7909 124.11 44.9236 124.264 45.0918C124.585 45.4395 124.745 45.9077 124.745 46.5096C124.749 46.782 124.709 47.0531 124.625 47.3122Z" fill="#00A443"/>
<path d="M130.149 44.2357C129.927 44.0732 129.678 43.951 129.413 43.8746C129.131 43.7943 128.838 43.7538 128.544 43.7542C128.089 43.7456 127.641 43.8612 127.247 44.0886C126.868 44.3048 126.575 44.6449 126.417 45.0516L127.14 45.4396C127.243 45.1767 127.425 44.9524 127.661 44.7975C127.924 44.6425 128.225 44.5638 128.531 44.5701C128.778 44.5655 129.024 44.611 129.253 44.7039C129.468 44.7874 129.651 44.9373 129.775 45.1319C129.919 45.3738 129.989 45.653 129.975 45.9345V46.5899C129.937 46.5275 129.887 46.473 129.828 46.4294C129.494 46.1351 128.999 45.988 128.37 45.988C128.008 45.9848 127.649 46.053 127.313 46.1886C127.005 46.2962 126.732 46.4858 126.524 46.737C126.329 46.9893 126.225 47.3007 126.23 47.6198C126.218 47.9441 126.323 48.2618 126.524 48.516C126.724 48.77 126.994 48.9605 127.3 49.0645C127.631 49.2001 127.986 49.2683 128.343 49.2651C128.985 49.2651 129.467 49.118 129.815 48.8237L130.002 48.623V49.1581H130.885V45.8408C130.896 45.5127 130.827 45.1869 130.684 44.8911C130.559 44.6339 130.376 44.4095 130.149 44.2357ZM129.601 48.3154C129.291 48.4748 128.946 48.5531 128.598 48.5428C128.241 48.5513 127.887 48.4733 127.568 48.3154C127.441 48.2489 127.335 48.1487 127.262 48.026C127.189 47.9033 127.151 47.7627 127.153 47.6198C127.15 47.4767 127.187 47.3355 127.26 47.2125C127.334 47.0895 127.44 46.9896 127.568 46.9243C127.887 46.7664 128.241 46.6883 128.598 46.6969C128.948 46.6844 129.294 46.7677 129.601 46.9377C129.726 47.0013 129.83 47.0993 129.901 47.2202C129.972 47.3411 130.007 47.4797 130.002 47.6198C130.006 47.7616 129.971 47.9019 129.9 48.0247C129.829 48.1476 129.726 48.2483 129.601 48.3154Z" fill="#00A443"/>
<path d="M135.54 44.0083C135.223 43.8384 134.869 43.751 134.51 43.7541C134.152 43.7541 133.8 43.8512 133.493 44.035C133.239 44.1872 133.034 44.4104 132.904 44.6771V43.8477H131.995V49.158H132.904V46.0013C132.888 45.8104 132.914 45.6184 132.979 45.4384C133.045 45.2584 133.149 45.0947 133.283 44.9587C133.418 44.8226 133.581 44.7174 133.76 44.6503C133.94 44.5832 134.131 44.5558 134.322 44.57C134.494 44.5621 134.666 44.5915 134.825 44.6561C134.984 44.7208 135.128 44.8192 135.245 44.9446C135.486 45.1987 135.593 45.5331 135.593 45.9745V49.158H136.503V45.8408C136.507 45.4558 136.42 45.0752 136.248 44.7306C136.084 44.4284 135.839 44.1783 135.54 44.0083Z" fill="#00A443"/>
<path d="M141.024 43.8478L139.713 46.4829L139.405 47.1249C139.285 46.8574 139.178 46.6434 139.111 46.4829L137.814 43.8478H136.784L138.937 48.1281L137.6 50.8836H138.589L142 43.8478H141.024Z" fill="#00A443"/>
</g>
<defs>
<clipPath id="clip0_23_5901">
<rect width="142" height="43.0038" fill="white" transform="translate(0 8)"/>
</clipPath>
</defs>
</svg>
