<svg height="213.437475" viewBox="0 0 23.789382 10.924722" width="468.521286" xmlns="http://www.w3.org/2000/svg"><g transform="translate(-570.96308 -536.21685)"><path d="m593.84954 542.07884-11.26531-1.05779-.38826 1.42214-11.05354-3.33791c-.0824-.0353-.0471-.1528.0412-.14104l9.7417 1.381.39414-1.46915 12.56539 3.04996c.0882.0294.0588.16454-.0353.15279z" fill="#f48120"/><path d="m593.84954 542.07884-11.26531-1.05779-.38826 1.42214-11.05354-3.33791c-.0824-.0353-.0471-.1528.0412-.14104l9.7417 1.381.39414-1.46915 12.56539 3.04996c.0882.0294.0588.16454-.0353.15279z" fill="#f58220"/><path d="m588.26688 540.21008c.42944-1.2576 1.57068-2.16847 2.77662-2.16847 1.00594 0 1.56479.4525 2.05894 1.14594l1.51773-1.06367c-.67063-1.09305-1.74716-1.77474-3.34724-1.77474-2.2413 0-4.13552 1.48091-4.82379 3.42019zm-6.84742-1.65721 1.71774.41137.66474-2.47406h-1.84128l-.55297 2.05682zm9.76523 4.525c-.31178.14103-.64709.22331-1.053.22331-.97652 0-1.72362-.54653-1.96481-1.40451l-1.98246-.18218c.1706 2.02156 1.77068 3.28503 3.92962 3.28503 1.40008 0 2.37072-.54065 3.17076-1.2811l-1.1883-1.23997c-.31178.2527-.60003.45838-.91181.59942zm-9.07108-.29971-.0412-.0176-1.66479-.49951-.68827 2.57395h6.00032l.45296-1.66895h-4.16493z" fill="#231f20"/><path d="m591.45529 546.40403h2.15894v.13516h-2.15894zm-20.35992 0h2.15894v.13516h-2.15894z" fill="#f58220"/><path d="m573.77199 545.85163h.31766c.21178 0 .34708.0588.42943.14104.0824.0823.11766.18805.11766.31733 0 .16455-.0647.31146-.17648.429-.12942.12928-.31767.1998-.57062.1998h-.4059zm.14118.87561c.14707 0 .27648-.047.36472-.13516.0706-.0705.11177-.16454.11177-.27032 0-.0764-.0235-.13516-.0647-.17042-.0471-.047-.12942-.0823-.25296-.0823h-.11765l-.17648.65819h.1353zm.8824-.13516c0-.0529.0118-.11166.0294-.1763l.15295-.56415h.24119l-.15883.58766c-.0118.0353-.0177.0705-.0177.11753 0 .10578.0647.18218.18825.18218.0706 0 .12942-.0235.17648-.0705.0471-.047.0824-.11166.10589-.19981l.16471-.61704h.24119l-.17648.64642c-.0353.14104-.0941.24682-.1706.32322-.0882.0881-.20589.13516-.3706.13516-.24708.006-.40591-.12929-.40591-.36435zm1.95305.30559c-.0824.0411-.18237.0646-.28825.0646-.30002 0-.50003-.20568-.50003-.48189 0-.32321.26472-.64642.65298-.64642.30001 0 .50002.20568.50002.48188 0 .16454-.0647.32909-.18824.44662l.0882.11754-.20001.12928-.0647-.11165zm-.12354-.18806-.14118-.18805.20001-.13516.11177.1763c.0471-.0705.0706-.1528.0706-.23507 0-.16454-.10001-.2762-.27649-.2762-.22942 0-.37649.21744-.37649.40549 0 .16454.10001.2762.27649.2762.0529.006.1-.006.1353-.0235zm.65886-.11753c0-.0529.0118-.11166.0235-.1763l.15295-.56415h.24119l-.15883.58766c-.0118.0353-.0177.0705-.0177.11753 0 .10578.0647.18218.18824.18218.0706 0 .12942-.0235.17648-.0705.0471-.047.0824-.11166.10589-.19981l.16472-.61704h.24119l-.17648.64642c-.0353.14104-.0941.24682-.1706.32322-.0882.0881-.20589.13516-.37061.13516-.24707.006-.40002-.12929-.40002-.36435zm1.37066-.74045h.81181l-.0588.21156h-.5765l-.0588.22331h.50591l-.0588.21156h-.50591l-.0647.22918h.58827l-.0588.21156h-.82358zm.71181.905.18236-.1528c.0882.094.18236.14104.3059.14104.0941 0 .16471-.047.16471-.11165 0-.0529-.0412-.0823-.18824-.14104-.14119-.0588-.27061-.13516-.27061-.29383 0-.22331.20001-.35848.43532-.35848.18825 0 .31767.0647.40591.16455l-.16472.16454c-.0824-.0764-.15295-.11753-.25884-.11753-.1 0-.15883.0588-.15883.11166 0 .0588.0412.0823.19413.14103.14707.0588.25884.13517.25884.29384 0 .22918-.2059.36435-.43532.36435-.20589-.006-.37061-.0705-.47061-.20568zm1.31771-.905h.22354l.31767.69344.18824-.69344h.23531l-.29413 1.08717h-.2059l-.32943-.71695-.19412.71695h-.23531zm1.2236 0h.81181l-.0588.21156h-.5765l-.0588.22331h.50591l-.0588.21156h-.5059l-.0647.22918h.58826l-.0588.21156h-.82358zm1.50008 0h.24119l-.23531.86974h.54121l-.0588.21743h-.78239zm.98829 0h.24119l-.29414 1.08717h-.24119zm.3059.63467c0-.34084.28825-.6523.68239-.6523.22942 0 .3706.0882.44708.18805l-.17648.15867c-.0647-.0705-.14707-.12341-.28825-.12341-.23531 0-.41179.1998-.41179.42899 0 .17042.12354.25857.27649.25857.0823 0 .14706-.0176.19412-.0411l.053-.1763h-.24119l.0588-.20568h.47061l-.15295.54064c-.10589.0588-.22942.0999-.39414.0999-.25884 0-.51767-.14692-.51767-.47601zm1.41772-.63467h.24119l-.11765.42899h.43531l.11766-.42899h.24119l-.29414 1.08717h-.2353l.11765-.43487h-.43532l-.11765.43487h-.24119zm1.34713.22331h-.32943l.0588-.22331h.90593l-.0588.22331h-.33531l-.23531.86974h-.24119zm1.05888.41136c0-.34672.29414-.6523.66474-.6523.2059 0 .34708.0882.43532.22919l-.20001.14103c-.0647-.0881-.1353-.14691-.2706-.14691-.20001 0-.38238.18805-.38238.42311 0 .15867.11177.26445.26472.26445.10589 0 .17648-.0411.25296-.10578l.15295.16455c-.10589.094-.22943.16454-.41179.16454-.28825-.006-.50591-.18805-.50591-.48188zm1.10006-.006c0-.32321.26472-.64642.65298-.64642.30001 0 .50002.20568.50002.48188 0 .32321-.26472.64643-.65297.64643-.30002 0-.50003-.21156-.50003-.48189zm.90593-.14691c0-.16454-.1-.2762-.27648-.2762-.22943 0-.37649.21743-.37649.40548 0 .16455.1.27621.27648.27621.22354 0 .37649-.21744.37649-.40549zm.30002.35847h.25295l-.0647.24682h-.25295zm-13.04188-5.2243c-.0647.1234-.1353.24094-.21766.35847-.006.006-.006.0118-.0118.0118-.0353.0529-.0765.0999-.11766.15279-.006.0118-.0177.0235-.0294.0294-.0412.047-.0882.094-.12942.14104-.25295.25269-.54709.45837-.8824.61116-.0529.0235-.11177.0529-.1706.0764-.11765.047-.2353.0882-.35884.12929-.0588.0176-.12354.0353-.18825.0529-.0706.0176-.14706.0353-.22354.047-.11177.0235-.22354.0411-.33531.0529-.20589.0235-.41767.0411-.63533.0411h-1.04123l1.3589-5.03038h.89416c.11765 0 .22943.006.33531.0118.10589.006.21178.0176.3059.0294.58827.0823 1.00006.28795 1.27654.56415l.0118.0118c.20589.21155.35296.48188.42355.81684l1.95893.27033c-.006-.25269-.0353-.49364-.0824-.72282 0-.006-.006-.0176-.006-.0235-.0118-.0646-.0294-.12341-.0412-.18218 0-.0118-.006-.0176-.006-.0294-.0177-.0705-.0412-.13516-.0647-.1998-.006-.0118-.006-.0176-.0118-.0294-.0177-.0588-.0412-.11165-.0647-.17042-.006-.0118-.006-.0235-.0118-.0294-.0294-.0646-.0588-.12341-.0882-.18218-.006-.006-.006-.0118-.0118-.0235-.0294-.0529-.0588-.10578-.0882-.15279-.006-.0118-.0177-.0235-.0235-.0353-.0353-.0588-.0706-.11166-.11177-.16455-.006-.006-.006-.0118-.0118-.0176-.0353-.047-.0765-.094-.11177-.14104-.0118-.0118-.0235-.0235-.0353-.0411-.0412-.0529-.0882-.0999-.1353-.14692-.0588-.0588-.12942-.11753-.19413-.1763-.0647-.0529-.12942-.10578-.20001-.15867-.0471-.0353-.10001-.0705-.15295-.0999-.25884-.16454-.56474-.29971-.92358-.40548-.49414-.14692-1.08829-.23507-1.8001-.23507h-2.43542l-2.2413 8.34479h3.10017c.48237 0 .93534-.0353 1.35889-.0999.21178-.0353.41767-.0764.6118-.12341.58827-.14692 1.11182-.36435 1.57067-.65231.3059-.19392.58239-.41136.83534-.66405.0588-.0588.11177-.11753.16472-.1763.0176-.0176.0294-.0353.0412-.047.0412-.047.0765-.094.11765-.13516.0118-.0176.0294-.0353.0412-.0529.0412-.0529.0882-.11166.12942-.17042l.0176-.0176c.0471-.0646.0882-.12929.12942-.19393.006-.006.006-.0118.0118-.0176.1-.15279.18824-.31146.26472-.47601l-1.7648-.52889z" fill="#231f20"/></g></svg>